<?xml version="1.0" encoding="UTF-8" standalone="no" ?>
<!DOCTYPE svg PUBLIC "-//W3C//DTD SVG 1.1//EN" "http://www.w3.org/Graphics/SVG/1.1/DTD/svg11.dtd">
<svg xmlns="http://www.w3.org/2000/svg" xmlns:xlink="http://www.w3.org/1999/xlink" version="1.1" width="555.2128" height="457.03336" xml:space="preserve">
<desc>Created with Fabric.js 1.6.0-rc.1</desc>
<defs></defs>
<g style="stroke: none; stroke-width: 1; stroke-dasharray: none; stroke-linecap: butt; stroke-linejoin: miter; stroke-miterlimit: 10; fill: none; fill-rule: nonzero; opacity: 1;" transform="translate(10 281.69000000000005) scale(13.88 6.33)" >
  <path d="M 35.848 16.177 c -2.013 2.56 -4.529 3.89 -7.484 4.951 c -2.603 0.935 -6.231 1.524 -8.775 1.6 c -2.542 0.076 -3.846 -0.068 -5.631 -0.348 c -1.877 -0.294 -3.719 -0.771 -5.405 -1.42 c 1.472 0.499 3.059 0.871 4.664 1.099 c 1.542 0.219 2.539 0.334 4.82 0.267 c 2.281 -0.066 5.653 -0.626 7.926 -1.506 c 2.555 -0.989 4.653 -2.256 5.995 -4.528 c 1.341 -2.272 1.087 -5.424 -1.402 -7.976 c -3.094 -3.172 -10.493 -5.408 -16.058 -5.244 C 8.931 3.237 7.006 4.134 4.426 5.589 C 2.06 6.924 0.575 8.606 0 10.408 c 0.361 -2.369 1.949 -4.715 4.823 -6.642 C 8.067 1.59 11.009 0.218 18.005 0.01 c 6.997 -0.205 15.218 2.728 18.118 6.748 C 38.375 9.879 37.862 13.617 35.848 16.177 L 35.848 16.177" style="stroke: none; stroke-width: 1; stroke-dasharray: none; stroke-linecap: butt; stroke-linejoin: miter; stroke-miterlimit: 10; fill: #ff3e34; fill-rule: nonzero; opacity: 1;" transform=" matrix(1 0 0 1 0 0) " stroke-linecap="round" />
  <path d="M 30.939 16.376 c -0.841 1.56 -1.169 1.645 -2.015 2.31 c -0.346 -1.104 -1.56 -2.15 -3.526 -2.936 c -2.15 -0.858 -5.051 -1.357 -8.265 -1.263 c -3.213 0.096 -5.93 0.761 -7.789 1.739 c -1.699 0.896 -2.57 2 -2.565 3.115 c -1.046 -0.609 -1.395 -0.674 -2.721 -2.169 c -1.325 -1.495 -2.187 -4.629 -0.603 -6.875 c 1.911 -2.71 6.279 -4.766 12.23 -4.941 c 5.951 -0.177 10.92 1.604 13.67 4.176 C 31.634 11.664 31.781 14.818 30.939 16.376 L 30.939 16.376" style="stroke: none; stroke-width: 1; stroke-dasharray: none; stroke-linecap: butt; stroke-linejoin: miter; stroke-miterlimit: 10; fill: #0984e3; fill-rule: nonzero; opacity: 1;" transform=" matrix(1 0 0 1 0 0) " stroke-linecap="round" />
  <path d="M 27.118 19.786 c -1.221 0.644 -2.63 1.151 -4.133 1.504 c -1.438 0.339 -3.019 0.55 -4.68 0.599 s -3.292 -0.067 -4.825 -0.317 c -1.599 -0.26 -3.154 -0.682 -4.567 -1.245 c 1.519 0.4 3.083 0.695 4.645 0.874 c 1.516 0.174 3.083 0.243 4.67 0.197 c 1.587 -0.048 3.115 -0.211 4.563 -0.473 C 24.281 20.655 25.74 20.271 27.118 19.786 L 27.118 19.786" style="stroke: none; stroke-width: 1; stroke-dasharray: none; stroke-linecap: butt; stroke-linejoin: miter; stroke-miterlimit: 10; fill: #0984e3; fill-rule: nonzero; opacity: 1;" transform=" matrix(1 0 0 1 0 0) " stroke-linecap="round" />
</g>
  <g transform="translate(286.37 360.02) rotate(0.64) scale(3.64 3.48)">
   <text font-family="Whackadoo" font-size="40" font-weight="normal" style="stroke: none; stroke-width: 1; stroke-dasharray: none; stroke-linecap: butt; stroke-linejoin: miter; stroke-miterlimit: 10; fill: #000000; fill-rule: nonzero; opacity: 1;" ><tspan x="-60.5" y="8.98" style="stroke: none; stroke-width: 0; stroke-dasharray: none; stroke-linecap: butt; stroke-linejoin: miter; stroke-miterlimit: 4; fill: #000000; fill-rule: ; opacity: 1;">S</tspan><tspan x="-40.5" y="8.98" style="stroke: none; stroke-width: 0; stroke-dasharray: none; stroke-linecap: butt; stroke-linejoin: miter; stroke-miterlimit: 4; fill: #000000; fill-rule: ; opacity: 1;">w</tspan><tspan x="-11.5" y="8.98" style="stroke: none; stroke-width: 0; stroke-dasharray: none; stroke-linecap: butt; stroke-linejoin: miter; stroke-miterlimit: 4; fill: #000000; fill-rule: ; opacity: 1;">i</tspan><tspan x="0.5" y="8.98" style="stroke: none; stroke-width: 0; stroke-dasharray: none; stroke-linecap: butt; stroke-linejoin: miter; stroke-miterlimit: 4; fill: #000000; fill-rule: ; opacity: 1;">r</tspan><tspan x="17.5" y="8.98" style="stroke: none; stroke-width: 0; stroke-dasharray: none; stroke-linecap: butt; stroke-linejoin: miter; stroke-miterlimit: 4; fill: #000000; fill-rule: ; opacity: 1;">l</tspan><tspan x="28.5" y="8.98" style="stroke: none; stroke-width: 0; stroke-dasharray: none; stroke-linecap: butt; stroke-linejoin: miter; stroke-miterlimit: 4; fill: #000000; fill-rule: ; opacity: 1;">l</tspan><tspan x="39.5" y="8.98" style="stroke: none; stroke-width: 0; stroke-dasharray: none; stroke-linecap: butt; stroke-linejoin: miter; stroke-miterlimit: 4; fill: #000000; fill-rule: ; opacity: 1;">y</tspan></text>
 </g>
<g style="stroke: none; stroke-width: 1; stroke-dasharray: none; stroke-linecap: butt; stroke-linejoin: miter; stroke-miterlimit: 10; fill: none; fill-rule: nonzero; opacity: 1;" transform="translate(172.43000000000004 10) scale(0.13 0.13)" >
  <path d="M 949.508 1744.192 V 328.453 L 756.508 0 v 1744.192 z" style="stroke: none; stroke-width: 1; stroke-dasharray: none; stroke-linecap: butt; stroke-linejoin: miter; stroke-miterlimit: 10; fill: #0984e3; fill-rule: nonzero; opacity: 1;" transform=" matrix(1.0000000485627396 0 0 1.0000000485627396 0 0) " stroke-linecap="round" />
  <path d="M 1239.508 1524.192 V 637.739 l -202 -243.593 v 1130.046 z M 440.508 2059.192 V 670.585 l 202 -243.592 v 1632.199 z" style="stroke: none; stroke-width: 1; stroke-dasharray: none; stroke-linecap: butt; stroke-linejoin: miter; stroke-miterlimit: 10; fill: #ff3e38; fill-rule: nonzero; opacity: 1;" transform=" matrix(1.0000000485627396 0 0 1.0000000485627396 0 0) " stroke-linecap="round" />
  <path d="M 908.524 141.337 c 312.153 -21.438 563.446 66.224 651.844 256.466 c 144.207 310.339 -199.586 775.984 -767.897 1040.072 C 513 1567.734 231.319 1624.623 0 1612.041 c 255.814 48.332 599.591 -3.521 940.026 -161.722 c 580.063 -269.536 930.621 -745.588 782.989 -1063.282 c -104.183 -224.202 -428.663 -309.593 -814.491 -245.7 z" style="stroke: none; stroke-width: 1; stroke-dasharray: none; stroke-linecap: butt; stroke-linejoin: miter; stroke-miterlimit: 10; fill: #000004; fill-rule: nonzero; opacity: 1;" transform=" matrix(1.0000000485627396 0 0 1.0000000485627396 0 0) " stroke-linecap="round" />
</g>
</svg>